#!OML:ASF I:\salsa\salsa 7_09\Patient 1\Session 1\dancermale.ASF
:FULLY-SPECIFIED
:DEGREES
2994
root -0.824133 17.2548 -7.02488 -2693.22 541.314 902.071
lowerback 179.274 -176.146 -179.453
upperback 0.625292 -5.13749 -0.988043
thorax 0.90779 -2.5615 -1.38725
lowerneck -6.08516 3.70583 0.801265
upperneck 39.1314 8.91488 -9.83345
head 15.3119 2.62812 -3.08304
rclavicle 5.89397e-014 -9.14409e-015
rhumerus -217.316 188.289 -265.645
rradius 101.413
rwrist -18.61
rhand -68.2242 -3.29494
rfingers 7.12502
rthumb -39.9402 -28.539
lclavicle 5.89397e-014 -9.14409e-015
lhumerus 361.071 -21.166 -253.996
lradius 64.4383
lwrist 41.8101
lhand -22.836 56.6824
lfingers 7.12502
lthumb 3.6015 -1713.37
rfemur -19.1372 -0.196782 16.3154
rtibia 34.3773
rfoot -22.6131 -19.8829
rtoes -1.49365
lfemur -20.339 5.59439 -10.4101
ltibia 28.4819
lfoot -8.32172 10.4607
ltoes -20.7176
2995
root -0.833593 17.2491 -7.04836 -2693.15 540.699 902.431
lowerback 179.28 -176.142 -179.813
upperback 0.626806 -5.13775 -1.08918
thorax 0.928027 -2.56358 -1.29165
lowerneck -6.23687 3.49093 0.704005
upperneck 39.2709 8.57181 -9.6403
head 15.3679 2.48578 -3.03432
rclavicle 3.9583e-014 1.76918e-014
rhumerus -217.118 190.06 -265.087
rradius 101.284
rwrist -19.3474
rhand -68.1814 -2.3196
rfingers 7.12502
rthumb -39.8999 -27.5758
lclavicle 3.9583e-014 1.76918e-014
lhumerus 361.243 -21.7688 -253.539
lradius 63.8365
lwrist 41.9834
lhand -22.8378 57.3327
lfingers 7.12502
lthumb 3.59975 -1712.72
rfemur -19.3594 -0.58319 15.9481
rtibia 34.7055
rfoot -22.8877 -20.0735
rtoes -1.20143
lfemur -20.3384 5.17263 -10.8163
ltibia 27.8822
lfoot -8.3038 10.2717
ltoes -22.2392
2996
root -0.851085 17.2471 -7.0846 -2692.99 539.967 902.701
lowerback 179.427 -176.066 -180.116
upperback 0.558581 -5.2368 -1.12557
thorax 0.797248 -2.61556 -1.14887
lowerneck -6.27635 3.32064 0.598358
upperneck 39.357 8.3381 -9.58676
head 15.3918 2.37682 -3.02853
rclavicle -2.20651e-014 -1.86858e-014
rhumerus -216.955 191.818 -264.403
rradius 101.131
rwrist -20.0027
rhand -68.1001 -2.55272
rfingers 7.12502
rthumb -39.8234 -27.8318
lclavicle -2.20651e-014 -1.86858e-014
lhumerus 361.113 -22.1035 -253.078
lradius 63.4371
lwrist 42.5336
lhand -21.95 58.7578
lfingers 7.12502
lthumb 4.45703 -1711.31
rfemur -19.6787 -1.09444 15.7323
rtibia 34.9773
rfoot -23.0694 -20.3656
rtoes -0.961482
lfemur -20.6147 4.67893 -11.1068
ltibia 27.4591
lfoot -8.22945 10.094
ltoes -22.6215
2997
root -0.875487 17.247 -7.1297 -2692.74 539.212 902.872
lowerback 179.615 -175.949 -180.363
upperback 0.476578 -5.39233 -1.09984
thorax 0.6308 -2.69515 -0.969595
lowerneck -6.40409 3.19168 0.429501
upperneck 39.4665 8.17766 -9.51088
head 15.4525 2.28833 -2.991
rclavicle -1.41634e-015 3.97569e-016
rhumerus -216.916 193.424 -263.594
rradius 101.09
rwrist -21.0641
rhand -68.1322 -3.50487
rfingers 7.12502
rthumb -39.8536 -28.7749
lclavicle -1.41634e-015 3.97569e-016
lhumerus 360.651 -22.3638 -252.682
lradius 62.9761
lwrist 43.2348
lhand -21.7983 58.8476
lfingers 7.12502
lthumb 4.60352 -1711.22
rfemur -20.0759 -1.61704 15.6703
rtibia 35.1207
rfoot -23.0559 -20.6343
rtoes -0.770972
lfemur -21.1328 4.27088 -11.2529
ltibia 27.2235
lfoot -8.16709 9.83544
ltoes -22.2794
2998
root -0.900107 17.2473 -7.16627 -2692.44 538.664 903.054
lowerback 179.59 -175.918 -180.559
upperback 0.462763 -5.43242 -1.12017
thorax 0.645902 -2.71598 -0.884517
lowerneck -6.62276 3.05853 0.220268
upperneck 39.4964 7.97246 -9.31922
head 15.48 2.18957 -2.89639
rclavicle -3.77194e-014 -1.27222e-014
rhumerus -217.151 195.003 -262.695
rradius 101.098
rwrist -22.1736
rhand -67.8313 -4.72198
rfingers 7.12502
rthumb -39.5703 -30.0762
lclavicle -3.77194e-014 -1.27222e-014
lhumerus 359.798 -22.8236 -252.4
lradius 62.7893
lwrist 43.8209
lhand -22.0365 58.7827
lfingers 7.12502
lthumb 4.37353 -1711.28
rfemur -20.4479 -2.02341 15.576
rtibia 35.1051
rfoot -23.0266 -20.7384
rtoes -0.489172
lfemur -21.5652 4.00975 -11.4132
ltibia 26.9137
lfoot -8.10807 9.62806
ltoes -21.7537
2999
root -0.922397 17.2494 -7.19253 -2692.14 538.348 903.261
lowerback 179.445 -175.929 -180.733
upperback 0.487692 -5.4133 -1.1692
thorax 0.764374 -2.70703 -0.851177
lowerneck -6.75493 2.97689 0.0454181
upperneck 39.3679 7.845 -9.20595
head 15.4191 2.12708 -2.82444
rclavicle -2.97929e-014 3.77691e-015
rhumerus -217.388 196.506 -261.737
rradius 101.034
rwrist -23.0268
rhand -66.9558 -6.03679
rfingers 7.12502
rthumb -38.7451 -31.6293
lclavicle -2.97929e-014 3.77691e-015
lhumerus 358.682 -23.1286 -252.172
lradius 62.877
lwrist 44.1796
lhand -21.8115 59.019
lfingers 7.12502
lthumb 4.59078 -1711.05
rfemur -20.7384 -2.44644 15.4185
rtibia 34.9883
rfoot -22.8873 -20.7874
rtoes -0.505399
lfemur -21.8135 3.92797 -11.6015
ltibia 26.5085
lfoot -8.02673 9.45567
ltoes -21.3899
3000
root -0.949927 17.2535 -7.22735 -2691.82 538.008 903.416
lowerback 179.38 -175.881 -180.912
upperback 0.498631 -5.47434 -1.19011
thorax 0.825749 -2.73837 -0.7813
lowerneck -6.83977 2.94988 -0.0177479
upperneck 39.17 7.80814 -9.2123
head 15.332 2.10763 -2.80957
rclavicle -9.03973e-014 -2.36554e-014
rhumerus -217.48 197.88 -260.79
rradius 100.73
rwrist -23.6088
rhand -65.6759 -6.30673
rfingers 7.12502
rthumb -37.5367 -32.2305
lclavicle -9.03973e-014 -2.36554e-014
lhumerus 357.381 -23.099 -251.941
lradius 63.2286
lwrist 44.6199
lhand -21.5499 59.2298
lfingers 7.12502
lthumb 4.84337 -1710.85
rfemur -21.066 -2.90858 15.3511
rtibia 34.7976
rfoot -22.5932 -20.7912
rtoes -0.167459
lfemur -22.2172 4.03531 -11.7027
ltibia 26.2487
lfoot -7.93874 9.09703
ltoes -20.7346
3001
root -0.982655 17.2602 -7.27313 -2691.4 537.638 903.477
lowerback 179.372 -175.855 -181.083
upperback 0.492076 -5.50665 -1.18469
thorax 0.840073 -2.7554 -0.682822
lowerneck -7.00603 2.88464 0.145114
upperneck 39.006 7.69916 -9.29271
head 15.2889 2.07828 -2.87926
rclavicle -8.00108e-015 2.36554e-014
rhumerus -217.599 198.802 -259.921
rradius 100.166
rwrist -23.0565
rhand -64.5403 -10.1428
rfingers 7.12502
rthumb -36.4626 -36.3443
lclavicle -8.00108e-015 2.36554e-014
lhumerus 355.786 -23.2938 -251.757
lradius 63.8955
lwrist 45.4824
lhand -22.0244 59.1406
lfingers 7.12502
lthumb 4.38524 -1710.92
rfemur -21.5355 -3.30355 15.4361
rtibia 34.5541
rfoot -22.2963 -20.6796
rtoes 0.349045
lfemur -22.8322 4.20653 -11.6673
ltibia 26.0493
lfoot -7.81128 8.66946
ltoes -19.6681
3002
root -1.01435 17.2692 -7.31751 -2690.94 537.434 903.52
lowerback 179.352 -175.878 -181.312
upperback 0.462821 -5.47409 -1.14168
thorax 0.847318 -2.74036 -0.51346
lowerneck -7.21127 2.81681 0.330446
upperneck 38.8889 7.58395 -9.36621
head 15.2787 2.04747 -2.95301
rclavicle 2.13694e-015 1.23246e-014
rhumerus -217.685 199.562 -258.775
rradius 99.5017
rwrist -23.5157
rhand -63.378 -9.94198
rfingers 7.12502
rthumb -35.3614 -36.4129
lclavicle 2.13694e-015 1.23246e-014
lhumerus 354.012 -23.5433 -251.615
lradius 64.7896
lwrist 46.233
lhand -22.3756 58.9814
lfingers 7.12502
lthumb 4.04606 -1711.08
rfemur -22.0509 -3.71112 15.5335
rtibia 34.2375
rfoot -21.9141 -20.4554
rtoes 0.0729957
lfemur -23.3862 4.51109 -11.6191
ltibia 25.7362
lfoot -7.64233 8.29156
ltoes -19.1216
3003
root -1.04634 17.279 -7.35959 -2690.53 537.356 903.556
lowerback 179.286 -175.867 -181.521
upperback 0.448085 -5.48599 -1.09955
thorax 0.892591 -2.74757 -0.360852
lowerneck -7.34737 2.80916 0.330155
upperneck 38.7418 7.53969 -9.30497
head 15.2276 2.03761 -2.92363
rclavicle 2.16675e-014 5.36719e-015
rhumerus -217.549 200.165 -257.635
rradius 98.9308
rwrist -24.7072
rhand -61.775 -9.00255
rfingers 7.12502
rthumb -33.84 -35.8217
lclavicle 2.16675e-014 5.36719e-015
lhumerus 352.302 -23.6291 -251.712
lradius 65.8113
lwrist 46.8813
lhand -22.5971 58.9922
lfingers 7.12502
lthumb 3.83217 -1711.06
rfemur -22.4824 -4.073 15.6332
rtibia 33.8193
rfoot -21.4474 -20.2418
rtoes -0.699344
lfemur -23.8232 4.94663 -11.5822
ltibia 25.3999
lfoot -7.49415 8.04574
ltoes -18.9535
3004
root -1.08014 17.288 -7.40427 -2690.21 537.315 903.533
lowerback 179.274 -175.858 -181.616
upperback 0.480379 -5.49537 -1.13594
thorax 0.937898 -2.75289 -0.348381
lowerneck -7.44473 2.77855 0.413243
upperneck 38.5942 7.42577 -9.21141
head 15.1617 2.01423 -2.90649
rclavicle 1.635e-014 -1.63003e-014
rhumerus -217.252 200.869 -256.564
rradius 98.3939
rwrist -26.5773
rhand -59.6473 -7.05509
rfingers 7.12502
rthumb -31.816 -34.2978
lclavicle 1.635e-014 -1.63003e-014
lhumerus 350.555 -23.6555 -252.084
lradius 67.0427
lwrist 47.6827
lhand -23.2065 59.2509
lfingers 7.12502
lthumb 3.2437 -1710.79
rfemur -22.7532 -4.29919 15.8122
rtibia 33.2992
rfoot -20.9861 -20.143
rtoes -1.00226
lfemur -24.1812 5.40422 -11.4974
ltibia 25.1842
lfoot -7.52185 8.08951
ltoes -18.0951
